<?xml version="1.0" encoding="utf-8"?>
<!-- Generator: Adobe Illustrator 15.0.0, SVG Export Plug-In . SVG Version: 6.00 Build 0)  -->
<!DOCTYPE svg PUBLIC "-//W3C//DTD SVG 1.1//EN" "http://www.w3.org/Graphics/SVG/1.1/DTD/svg11.dtd">
<svg version="1.1" id="Layer_1" xmlns="http://www.w3.org/2000/svg" xmlns:xlink="http://www.w3.org/1999/xlink" x="0px" y="0px"
	 width="50px" height="50px" viewBox="0 0 50 50" enable-background="new 0 0 50 50" xml:space="preserve">
<g>
	<path fill-rule="evenodd" clip-rule="evenodd" d="M29.272,3.722c0,2.91,0,5.82,0,8.729c-8.366,0-16.732,0-25.098,0
		c0-2.91,0-5.82,0-8.729C12.541,3.722,20.906,3.722,29.272,3.722z"/>
	<path fill-rule="evenodd" clip-rule="evenodd" d="M38.002,3.722c2.727,0,5.455,0,8.184,0c0,2.91,0,5.82,0,8.729
		c-2.729,0-5.457,0-8.184,0C38.002,9.542,38.002,6.631,38.002,3.722z"/>
	<path fill-rule="evenodd" clip-rule="evenodd" d="M46.186,20.635c0,2.91,0,5.819,0,8.729c-14.004,0-28.007,0-42.011,0
		c0-2.91,0-5.819,0-8.729C18.179,20.635,32.182,20.635,46.186,20.635z"/>
	<path fill-rule="evenodd" clip-rule="evenodd" d="M4.175,37.548c5.638,0,11.276,0,16.914,0c0,2.91,0,5.82,0,8.73
		c-5.638,0-11.276,0-16.914,0C4.175,43.368,4.175,40.458,4.175,37.548z"/>
	<path fill-rule="evenodd" clip-rule="evenodd" d="M29.272,37.548c5.638,0,11.274,0,16.913,0c0,2.91,0,5.82,0,8.73
		c-5.639,0-11.275,0-16.913,0C29.272,43.368,29.272,40.458,29.272,37.548z"/>
</g>
</svg>
